<?xml version="1.0" encoding="UTF-8" standalone="no"?><svg xmlns="http://www.w3.org/2000/svg" xmlns:xlink="http://www.w3.org/1999/xlink" contentStyleType="text/css" height="398px" preserveAspectRatio="none" style="width:760px;height:398px;background:#FFFFFF;" version="1.1" viewBox="0 0 760 398" width="760px" zoomAndPan="magnify"><defs/><g><rect fill="none" height="292.75" style="stroke:#000000;stroke-width:1.5;" width="744" x="9" y="53.4883"/><rect fill="none" height="152.5527" style="stroke:#000000;stroke-width:1.5;" width="598" x="19" y="77.7988"/><rect fill="none" height="48.6211" style="stroke:#000000;stroke-width:1.5;" width="427" x="316" y="244.3516"/><rect fill="none" height="17.3105" style="stroke:#000000;stroke-width:1.5;" width="407" x="326" y="268.6621"/><rect fill="none" height="17.3105" style="stroke:#000000;stroke-width:1.5;" width="407" x="326" y="321.9277"/><line style="stroke:#181818;stroke-width:0.5;stroke-dasharray:5.0,5.0;" x1="344" x2="344" y1="36.4883" y2="363.2383"/><line style="stroke:#181818;stroke-width:0.5;stroke-dasharray:5.0,5.0;" x1="578" x2="578" y1="36.4883" y2="363.2383"/><rect fill="#E2E2F0" height="30.4883" rx="2.5" ry="2.5" style="stroke:#181818;stroke-width:0.5;" width="57" x="316" y="5"/><text fill="#000000" font-family="sans-serif" font-size="14" lengthAdjust="spacing" textLength="43" x="323" y="25.5352">Phone</text><rect fill="#E2E2F0" height="30.4883" rx="2.5" ry="2.5" style="stroke:#181818;stroke-width:0.5;" width="57" x="316" y="362.2383"/><text fill="#000000" font-family="sans-serif" font-size="14" lengthAdjust="spacing" textLength="43" x="323" y="382.7734">Phone</text><rect fill="#E2E2F0" height="30.4883" rx="2.5" ry="2.5" style="stroke:#181818;stroke-width:0.5;" width="57" x="550" y="5"/><text fill="#000000" font-family="sans-serif" font-size="14" lengthAdjust="spacing" textLength="43" x="557" y="25.5352">Server</text><rect fill="#E2E2F0" height="30.4883" rx="2.5" ry="2.5" style="stroke:#181818;stroke-width:0.5;" width="57" x="550" y="362.2383"/><text fill="#000000" font-family="sans-serif" font-size="14" lengthAdjust="spacing" textLength="43" x="557" y="382.7734">Server</text><path d="M9,53.4883 L71,53.4883 L71,60.7988 L61,70.7988 L9,70.7988 L9,53.4883 " fill="#EEEEEE" style="stroke:#000000;stroke-width:1.5;"/><rect fill="none" height="292.75" style="stroke:#000000;stroke-width:1.5;" width="744" x="9" y="53.4883"/><text fill="#000000" font-family="sans-serif" font-size="13" font-weight="bold" lengthAdjust="spacing" textLength="17" x="24" y="67.0566">alt</text><text fill="#000000" font-family="sans-serif" font-size="11" font-weight="bold" lengthAdjust="spacing" textLength="406" x="86" y="66.123">[normal user (guest, invited) [AccessSaveManager.updateGuestSchedule]]</text><path d="M19,77.7988 L359,77.7988 L359,85.1094 L349,95.1094 L19,95.1094 L19,77.7988 " fill="#EEEEEE" style="stroke:#000000;stroke-width:1.5;"/><rect fill="none" height="152.5527" style="stroke:#000000;stroke-width:1.5;" width="598" x="19" y="77.7988"/><text fill="#000000" font-family="sans-serif" font-size="13" font-weight="bold" lengthAdjust="spacing" textLength="295" x="34" y="91.3672">AccessSaveManager.updateAccessSchedule</text><polygon fill="#181818" points="566.5,115.4199,576.5,119.4199,566.5,123.4199,570.5,119.4199" style="stroke:#181818;stroke-width:1.0;"/><line style="stroke:#181818;stroke-width:1.0;" x1="344.5" x2="572.5" y1="119.4199" y2="119.4199"/><text fill="#000000" font-family="sans-serif" font-size="13" lengthAdjust="spacing" textLength="210" x="351.5" y="114.6777">Delete all rules for the user if any</text><path d="M103,100.1094 L103,125.1094 L339,125.1094 L339,110.1094 L329,100.1094 L103,100.1094 " fill="#FEFFDD" style="stroke:#181818;stroke-width:0.5;"/><path d="M329,100.1094 L329,110.1094 L339,110.1094 L329,100.1094 " fill="#FEFFDD" style="stroke:#181818;stroke-width:0.5;"/><text fill="#000000" font-family="sans-serif" font-size="13" lengthAdjust="spacing" textLength="215" x="109" y="117.6777">@DELETE("rules/{ruleID}/{userID}")</text><polygon fill="#181818" points="566.5,150.7305,576.5,154.7305,566.5,158.7305,570.5,154.7305" style="stroke:#181818;stroke-width:1.0;"/><line style="stroke:#181818;stroke-width:1.0;" x1="344.5" x2="572.5" y1="154.7305" y2="154.7305"/><text fill="#000000" font-family="sans-serif" font-size="13" lengthAdjust="spacing" textLength="169" x="351.5" y="149.9883">Remove user from the lock</text><path d="M97,135.4199 L97,160.4199 L339,160.4199 L339,145.4199 L329,135.4199 L97,135.4199 " fill="#FEFFDD" style="stroke:#181818;stroke-width:0.5;"/><path d="M329,135.4199 L329,145.4199 L339,145.4199 L329,135.4199 " fill="#FEFFDD" style="stroke:#181818;stroke-width:0.5;"/><text fill="#000000" font-family="sans-serif" font-size="13" lengthAdjust="spacing" textLength="221" x="103" y="152.9883">@DELETE("locks/{lockID}/{userID}")</text><polygon fill="#181818" points="566.5,186.041,576.5,190.041,566.5,194.041,570.5,190.041" style="stroke:#181818;stroke-width:1.0;"/><line style="stroke:#181818;stroke-width:1.0;" x1="344.5" x2="572.5" y1="190.041" y2="190.041"/><text fill="#000000" font-family="sans-serif" font-size="13" lengthAdjust="spacing" textLength="142" x="351.5" y="185.2988">Add new rule with info</text><path d="M29,170.7305 L29,195.7305 L339,195.7305 L339,180.7305 L329,170.7305 L29,170.7305 " fill="#FEFFDD" style="stroke:#181818;stroke-width:0.5;"/><path d="M329,170.7305 L329,180.7305 L339,180.7305 L329,170.7305 " fill="#FEFFDD" style="stroke:#181818;stroke-width:0.5;"/><text fill="#000000" font-family="sans-serif" font-size="13" lengthAdjust="spacing" textLength="289" x="35" y="188.2988">@POST("rules/rulewithuser/{lockID}/{userID}")</text><polygon fill="#181818" points="355.5,218.3516,345.5,222.3516,355.5,226.3516,351.5,222.3516" style="stroke:#181818;stroke-width:1.0;"/><line style="stroke:#181818;stroke-width:1.0;" x1="349.5" x2="577.5" y1="222.3516" y2="222.3516"/><text fill="#000000" font-family="sans-serif" font-size="13" lengthAdjust="spacing" textLength="114" x="361.5" y="217.6094">Return new rule id</text><path d="M316,244.3516 L383,244.3516 L383,251.6621 L373,261.6621 L316,261.6621 L316,244.3516 " fill="#EEEEEE" style="stroke:#000000;stroke-width:1.5;"/><rect fill="none" height="48.6211" style="stroke:#000000;stroke-width:1.5;" width="427" x="316" y="244.3516"/><text fill="#000000" font-family="sans-serif" font-size="13" font-weight="bold" lengthAdjust="spacing" textLength="22" x="331" y="257.9199">opt</text><text fill="#000000" font-family="sans-serif" font-size="11" font-weight="bold" lengthAdjust="spacing" textLength="90" x="398" y="256.9863">[realTimeClock]</text><path d="M326,268.6621 L728,268.6621 L728,275.9727 L718,285.9727 L326,285.9727 L326,268.6621 " fill="#EEEEEE" style="stroke:#000000;stroke-width:1.5;"/><rect fill="none" height="17.3105" style="stroke:#000000;stroke-width:1.5;" width="407" x="326" y="268.6621"/><text fill="#000000" font-family="sans-serif" font-size="13" font-weight="bold" lengthAdjust="spacing" textLength="357" x="341" y="282.2305">AccessSaveManager.updateUserCredentialsSchedule</text><line style="stroke:#000000;stroke-width:1.0;stroke-dasharray:2.0,2.0;" x1="9" x2="753" y1="300.9727" y2="300.9727"/><text fill="#000000" font-family="sans-serif" font-size="11" font-weight="bold" lengthAdjust="spacing" textLength="653" x="14" y="311.6074">[credential only (entryCode-only, RFID-only, fingerprint-only) [AccessSaveManager.updateUserCredentialsSchedule]]</text><path d="M326,321.9277 L728,321.9277 L728,329.2383 L718,339.2383 L326,339.2383 L326,321.9277 " fill="#EEEEEE" style="stroke:#000000;stroke-width:1.5;"/><rect fill="none" height="17.3105" style="stroke:#000000;stroke-width:1.5;" width="407" x="326" y="321.9277"/><text fill="#000000" font-family="sans-serif" font-size="13" font-weight="bold" lengthAdjust="spacing" textLength="357" x="341" y="335.4961">AccessSaveManager.updateUserCredentialsSchedule</text><!--SRC=[ZP9FQy904CNlVeh1auBMkuTICLg4begnfzB3afsOfPlPCDb4HFhTknEZfLI32zb_l9VVczrLrWCvpfM5gaI6mQx2qe_0K6qywY5yp984op9MDRugKZlaXwhGokEp2ECaGrrP_En1Q3jsLG6t3Er-wsWCqjQP8uJn8yJ8TKWmXGWjUWHbBN1Gbf0w1f_XAQ59GT7XOYSNf1PJFuMdQF6os2u6_SOrESgmYhudH_65IN_Oww1kC7TroqZPvGtHkkIh4oM2W9BXVjHCQo3SDzN1tlWi77VghdBMR_7sN93qeXR6LUJv1oqe84ziASvNJBzGeninaZxbT8K7HcMt9iVvdwAxx_GziEUC6iaRPVzVhW0k8BGbGd9HWoDxW45Oy67kD8vbFOBDSXMrqzHGG1Lio3Sx7Q_nHf1xtcLN3P8xV3y0]--></g></svg>