<svg xmlns="http://www.w3.org/2000/svg" xmlns:xlink="http://www.w3.org/1999/xlink" contentStyleType="text/css" height="624px" preserveAspectRatio="none" style="width:296px;height:624px;background:#FFFFFF;" version="1.1" viewBox="0 0 296 624" width="296px" zoomAndPan="magnify"><defs/><g><ellipse cx="148.4766" cy="20" fill="#222222" rx="10" ry="10" style="stroke:#222222;stroke-width:1;"/><rect fill="#F1F1F1" height="34.1328" rx="12.5" ry="12.5" style="stroke:#181818;stroke-width:0.5;" width="202.8418" x="47.0557" y="50"/><text fill="#000000" font-family="sans-serif" font-size="12" lengthAdjust="spacing" textLength="182.8418" x="57.0557" y="71.6016">Frigate processes camera feeds</text><rect fill="#F1F1F1" height="34.1328" rx="12.5" ry="12.5" style="stroke:#181818;stroke-width:0.5;" width="161.1816" x="67.8857" y="104.1328"/><text fill="#000000" font-family="sans-serif" font-size="12" lengthAdjust="spacing" textLength="141.1816" x="77.8857" y="125.7344">Frigate publishes events</text><rect fill="#F1F1F1" height="34.1328" rx="12.5" ry="12.5" style="stroke:#181818;stroke-width:0.5;" width="127.5371" x="84.708" y="158.2656"/><text fill="#000000" font-family="sans-serif" font-size="12" lengthAdjust="spacing" textLength="107.5371" x="94.708" y="179.8672">-&gt; "MQTT Server";</text><rect fill="#F1F1F1" height="34.1328" rx="12.5" ry="12.5" style="stroke:#181818;stroke-width:0.5;" width="173.8027" x="61.5752" y="212.3984"/><text fill="#000000" font-family="sans-serif" font-size="12" lengthAdjust="spacing" textLength="153.8027" x="71.5752" y="234">MQTT Server relays events</text><rect fill="#F1F1F1" height="34.1328" rx="12.5" ry="12.5" style="stroke:#181818;stroke-width:0.5;" width="144.0664" x="76.4434" y="266.5313"/><text fill="#000000" font-family="sans-serif" font-size="12" lengthAdjust="spacing" textLength="124.0664" x="86.4434" y="288.1328">-&gt; "Home Assistant";</text><rect fill="#F1F1F1" height="34.1328" rx="12.5" ry="12.5" style="stroke:#181818;stroke-width:0.5;" width="213.957" x="41.498" y="320.6641"/><text fill="#000000" font-family="sans-serif" font-size="12" lengthAdjust="spacing" textLength="193.957" x="51.498" y="342.2656">Home Assistant processes events</text><rect fill="#F1F1F1" height="34.1328" rx="12.5" ry="12.5" style="stroke:#181818;stroke-width:0.5;" width="274.9531" x="11" y="374.7969"/><text fill="#000000" font-family="sans-serif" font-size="12" lengthAdjust="spacing" textLength="254.9531" x="21" y="396.3984">Home Assistant controls/automates actions</text><rect fill="#F1F1F1" height="34.1328" rx="12.5" ry="12.5" style="stroke:#181818;stroke-width:0.5;" width="93.1367" x="101.9082" y="428.9297"/><text fill="#000000" font-family="sans-serif" font-size="12" lengthAdjust="spacing" textLength="73.1367" x="111.9082" y="450.5313">-&gt; "Frigate";</text><rect fill="#F1F1F1" height="34.1328" rx="12.5" ry="12.5" style="stroke:#181818;stroke-width:0.5;" width="147.1074" x="74.9229" y="483.0625"/><text fill="#000000" font-family="sans-serif" font-size="12" lengthAdjust="spacing" textLength="127.1074" x="84.9229" y="504.6641">User views dashboard</text><rect fill="#F1F1F1" height="34.1328" rx="12.5" ry="12.5" style="stroke:#181818;stroke-width:0.5;" width="133.7246" x="81.6143" y="537.1953"/><text fill="#000000" font-family="sans-serif" font-size="12" lengthAdjust="spacing" textLength="113.7246" x="91.6143" y="558.7969">-&gt; "User Interface";</text><ellipse cx="148.4766" cy="602.3281" fill="none" rx="11" ry="11" style="stroke:#222222;stroke-width:1;"/><ellipse cx="148.4766" cy="602.3281" fill="#222222" rx="6" ry="6" style="stroke:#222222;stroke-width:1;"/><line style="stroke:#181818;stroke-width:1;" x1="148.4766" x2="148.4766" y1="30" y2="50"/><polygon fill="#181818" points="144.4766,40,148.4766,50,152.4766,40,148.4766,44" style="stroke:#181818;stroke-width:1;"/><line style="stroke:#181818;stroke-width:1;" x1="148.4766" x2="148.4766" y1="84.1328" y2="104.1328"/><polygon fill="#181818" points="144.4766,94.1328,148.4766,104.1328,152.4766,94.1328,148.4766,98.1328" style="stroke:#181818;stroke-width:1;"/><line style="stroke:#181818;stroke-width:1;" x1="148.4766" x2="148.4766" y1="138.2656" y2="158.2656"/><polygon fill="#181818" points="144.4766,148.2656,148.4766,158.2656,152.4766,148.2656,148.4766,152.2656" style="stroke:#181818;stroke-width:1;"/><line style="stroke:#181818;stroke-width:1;" x1="148.4766" x2="148.4766" y1="192.3984" y2="212.3984"/><polygon fill="#181818" points="144.4766,202.3984,148.4766,212.3984,152.4766,202.3984,148.4766,206.3984" style="stroke:#181818;stroke-width:1;"/><line style="stroke:#181818;stroke-width:1;" x1="148.4766" x2="148.4766" y1="246.5313" y2="266.5313"/><polygon fill="#181818" points="144.4766,256.5313,148.4766,266.5313,152.4766,256.5313,148.4766,260.5313" style="stroke:#181818;stroke-width:1;"/><line style="stroke:#181818;stroke-width:1;" x1="148.4766" x2="148.4766" y1="300.6641" y2="320.6641"/><polygon fill="#181818" points="144.4766,310.6641,148.4766,320.6641,152.4766,310.6641,148.4766,314.6641" style="stroke:#181818;stroke-width:1;"/><line style="stroke:#181818;stroke-width:1;" x1="148.4766" x2="148.4766" y1="354.7969" y2="374.7969"/><polygon fill="#181818" points="144.4766,364.7969,148.4766,374.7969,152.4766,364.7969,148.4766,368.7969" style="stroke:#181818;stroke-width:1;"/><line style="stroke:#181818;stroke-width:1;" x1="148.4766" x2="148.4766" y1="408.9297" y2="428.9297"/><polygon fill="#181818" points="144.4766,418.9297,148.4766,428.9297,152.4766,418.9297,148.4766,422.9297" style="stroke:#181818;stroke-width:1;"/><line style="stroke:#181818;stroke-width:1;" x1="148.4766" x2="148.4766" y1="463.0625" y2="483.0625"/><polygon fill="#181818" points="144.4766,473.0625,148.4766,483.0625,152.4766,473.0625,148.4766,477.0625" style="stroke:#181818;stroke-width:1;"/><line style="stroke:#181818;stroke-width:1;" x1="148.4766" x2="148.4766" y1="517.1953" y2="537.1953"/><polygon fill="#181818" points="144.4766,527.1953,148.4766,537.1953,152.4766,527.1953,148.4766,531.1953" style="stroke:#181818;stroke-width:1;"/><line style="stroke:#181818;stroke-width:1;" x1="148.4766" x2="148.4766" y1="571.3281" y2="591.3281"/><polygon fill="#181818" points="144.4766,581.3281,148.4766,591.3281,152.4766,581.3281,148.4766,585.3281" style="stroke:#181818;stroke-width:1;"/><!--SRC=[NOv13e9034NtdA9XJznZOkB6wCA54GvGXYAJm9Iq1UFj7GaaoBBzxxTF3SMI9B-8Vw4H3CAEL4d1OK-2q13LUjm0OzLvRID04mMBKPQT8Bq_YWAU91D96kdD248TVdRubNk2iwfNms2_nlzcux7szeJZOCAT7d0qxgEQ0Zhp7DOVYt4ydkIbHf79qrkXHcqhHgaNR8vkmKWQT3EjniCN]--></g></svg>