<svg xmlns="http://www.w3.org/2000/svg" xmlns:xlink="http://www.w3.org/1999/xlink" contentStyleType="text/css" height="726px" preserveAspectRatio="none" style="width:388px;height:726px;background:#FFFFFF;" version="1.1" viewBox="0 0 388 726" width="388px" zoomAndPan="magnify"><defs/><g><rect fill="#FFFFFF" height="434.5918" style="stroke:#181818;stroke-width:1.0;" width="10" x="162" y="200.7305"/><rect fill="#FFFFFF" height="71.6211" style="stroke:#181818;stroke-width:1.0;" width="10" x="264" y="298.6172"/><rect fill="#FFFFFF" height="71.6211" style="stroke:#181818;stroke-width:1.0;" width="10" x="264" y="519.3906"/><rect fill="none" height="412.5918" style="stroke:#000000;stroke-width:1.5;" width="371" x="10" y="215.7305"/><rect fill="none" height="90.8867" style="stroke:#000000;stroke-width:1.5;" width="185" x="20" y="385.2383"/><line style="stroke:#181818;stroke-width:0.5;stroke-dasharray:5.0,5.0;" x1="47" x2="47" y1="81.4883" y2="645.3223"/><line style="stroke:#181818;stroke-width:0.5;stroke-dasharray:5.0,5.0;" x1="167" x2="167" y1="81.4883" y2="645.3223"/><line style="stroke:#181818;stroke-width:0.5;stroke-dasharray:5.0,5.0;" x1="268.2271" x2="268.2271" y1="81.4883" y2="645.3223"/><text fill="#000000" font-family="sans-serif" font-size="14" lengthAdjust="spacing" textLength="28" x="30" y="78.5352">&#29992;&#25143;</text><ellipse cx="47" cy="13.5" fill="#E2E2F0" rx="8" ry="8" style="stroke:#181818;stroke-width:0.5;"/><path d="M47,21.5 L47,48.5 M34,29.5 L60,29.5 M47,48.5 L34,63.5 M47,48.5 L60,63.5 " fill="none" style="stroke:#181818;stroke-width:0.5;"/><text fill="#000000" font-family="sans-serif" font-size="14" lengthAdjust="spacing" textLength="28" x="30" y="657.8574">&#29992;&#25143;</text><ellipse cx="47" cy="669.3105" fill="#E2E2F0" rx="8" ry="8" style="stroke:#181818;stroke-width:0.5;"/><path d="M47,677.3105 L47,704.3105 M34,685.3105 L60,685.3105 M47,704.3105 L34,719.3105 M47,704.3105 L60,719.3105 " fill="none" style="stroke:#181818;stroke-width:0.5;"/><rect fill="#E2E2F0" height="30.4883" rx="2.5" ry="2.5" style="stroke:#181818;stroke-width:0.5;" width="56" x="139" y="50"/><text fill="#000000" font-family="sans-serif" font-size="14" lengthAdjust="spacing" textLength="42" x="146" y="70.5352">&#26426;&#22120;&#20154;</text><rect fill="#E2E2F0" height="30.4883" rx="2.5" ry="2.5" style="stroke:#181818;stroke-width:0.5;" width="56" x="139" y="644.3223"/><text fill="#000000" font-family="sans-serif" font-size="14" lengthAdjust="spacing" textLength="42" x="146" y="664.8574">&#26426;&#22120;&#20154;</text><rect fill="#E2E2F0" height="30.4883" rx="2.5" ry="2.5" style="stroke:#181818;stroke-width:0.5;" width="67.5459" x="235.2271" y="50"/><text fill="#000000" font-family="sans-serif" font-size="14" lengthAdjust="spacing" textLength="53.5459" x="242.2271" y="70.5352">NLP&#21518;&#21488;</text><rect fill="#E2E2F0" height="30.4883" rx="2.5" ry="2.5" style="stroke:#181818;stroke-width:0.5;" width="67.5459" x="235.2271" y="644.3223"/><text fill="#000000" font-family="sans-serif" font-size="14" lengthAdjust="spacing" textLength="53.5459" x="242.2271" y="664.8574">NLP&#21518;&#21488;</text><rect fill="#FFFFFF" height="434.5918" style="stroke:#181818;stroke-width:1.0;" width="10" x="162" y="200.7305"/><rect fill="#FFFFFF" height="71.6211" style="stroke:#181818;stroke-width:1.0;" width="10" x="264" y="298.6172"/><rect fill="#FFFFFF" height="71.6211" style="stroke:#181818;stroke-width:1.0;" width="10" x="264" y="519.3906"/><polygon fill="#181818" points="257,108.7988,267,112.7988,257,116.7988,261,112.7988" style="stroke:#181818;stroke-width:1.0;"/><line style="stroke:#181818;stroke-width:1.0;" x1="167" x2="263" y1="112.7988" y2="112.7988"/><text fill="#000000" font-family="sans-serif" font-size="13" lengthAdjust="spacing" textLength="78" x="174" y="108.0566">&#33719;&#21462;&#28909;&#28857;&#38382;&#39064;</text><polygon fill="#181818" points="58,138.1094,48,142.1094,58,146.1094,54,142.1094" style="stroke:#181818;stroke-width:1.0;"/><line style="stroke:#181818;stroke-width:1.0;" x1="52" x2="166" y1="142.1094" y2="142.1094"/><text fill="#000000" font-family="sans-serif" font-size="13" lengthAdjust="spacing" textLength="52" x="64" y="137.3672">&#23637;&#31034;&#30028;&#38754;</text><polygon fill="#181818" points="155,167.4199,165,171.4199,155,175.4199,159,171.4199" style="stroke:#181818;stroke-width:1.0;"/><line style="stroke:#181818;stroke-width:1.0;" x1="47" x2="161" y1="171.4199" y2="171.4199"/><text fill="#000000" font-family="sans-serif" font-size="13" lengthAdjust="spacing" textLength="52" x="54" y="166.6777">&#36873;&#25321;&#35821;&#35328;</text><polygon fill="#181818" points="150,196.7305,160,200.7305,150,204.7305,154,200.7305" style="stroke:#181818;stroke-width:1.0;"/><line style="stroke:#181818;stroke-width:1.0;" x1="47" x2="156" y1="200.7305" y2="200.7305"/><text fill="#000000" font-family="sans-serif" font-size="13" lengthAdjust="spacing" textLength="84.8174" x="54" y="195.9883">&#35821;&#38899;/&#35302;&#25720;&#36873;&#39033;</text><path d="M10,215.7305 L72.1387,215.7305 L72.1387,223.041 L62.1387,233.041 L10,233.041 L10,215.7305 " fill="#EEEEEE" style="stroke:#000000;stroke-width:1.5;"/><rect fill="none" height="412.5918" style="stroke:#000000;stroke-width:1.5;" width="371" x="10" y="215.7305"/><text fill="#000000" font-family="sans-serif" font-size="13" font-weight="bold" lengthAdjust="spacing" textLength="17.1387" x="25" y="229.2988">alt</text><text fill="#000000" font-family="sans-serif" font-size="11" font-weight="bold" lengthAdjust="spacing" textLength="74.1533" x="87.1387" y="228.3652">[&#36873;&#25321;&#25351;&#23450;&#22320;&#28857;]</text><polygon fill="#181818" points="58,250.3516,48,254.3516,58,258.3516,54,254.3516" style="stroke:#181818;stroke-width:1.0;"/><line style="stroke:#181818;stroke-width:1.0;" x1="52" x2="161" y1="254.3516" y2="254.3516"/><text fill="#000000" font-family="sans-serif" font-size="13" lengthAdjust="spacing" textLength="26" x="64" y="249.6094">&#23548;&#33322;</text><line style="stroke:#000000;stroke-width:1.0;stroke-dasharray:2.0,2.0;" x1="10" x2="381" y1="263.3516" y2="263.3516"/><text fill="#000000" font-family="sans-serif" font-size="11" font-weight="bold" lengthAdjust="spacing" textLength="30.1533" x="15" y="273.9863">[&#35821;&#38899;]</text><polygon fill="#181818" points="252,294.6172,262,298.6172,252,302.6172,256,298.6172" style="stroke:#181818;stroke-width:1.0;"/><line style="stroke:#181818;stroke-width:1.0;" x1="172" x2="258" y1="298.6172" y2="298.6172"/><text fill="#000000" font-family="sans-serif" font-size="13" lengthAdjust="spacing" textLength="52" x="179" y="293.875">&#35821;&#38899;&#25968;&#25454;</text><line style="stroke:#181818;stroke-width:1.0;" x1="274" x2="316" y1="327.9277" y2="327.9277"/><line style="stroke:#181818;stroke-width:1.0;" x1="316" x2="316" y1="327.9277" y2="340.9277"/><line style="stroke:#181818;stroke-width:1.0;" x1="275" x2="316" y1="340.9277" y2="340.9277"/><polygon fill="#181818" points="285,336.9277,275,340.9277,285,344.9277,281,340.9277" style="stroke:#181818;stroke-width:1.0;"/><text fill="#000000" font-family="sans-serif" font-size="13" lengthAdjust="spacing" textLength="78" x="281" y="323.1855">&#22788;&#29702;&#35821;&#38899;&#25968;&#25454;</text><polygon fill="#181818" points="183,366.2383,173,370.2383,183,374.2383,179,370.2383" style="stroke:#181818;stroke-width:1.0;"/><line style="stroke:#181818;stroke-width:1.0;" x1="177" x2="268" y1="370.2383" y2="370.2383"/><text fill="#000000" font-family="sans-serif" font-size="13" lengthAdjust="spacing" textLength="52" x="189" y="365.4961">&#38382;&#35810;&#32467;&#26524;</text><path d="M20,385.2383 L82.1387,385.2383 L82.1387,392.5488 L72.1387,402.5488 L20,402.5488 L20,385.2383 " fill="#EEEEEE" style="stroke:#000000;stroke-width:1.5;"/><rect fill="none" height="90.8867" style="stroke:#000000;stroke-width:1.5;" width="185" x="20" y="385.2383"/><text fill="#000000" font-family="sans-serif" font-size="13" font-weight="bold" lengthAdjust="spacing" textLength="17.1387" x="35" y="398.8066">alt</text><text fill="#000000" font-family="sans-serif" font-size="11" font-weight="bold" lengthAdjust="spacing" textLength="30.1533" x="97.1387" y="397.873">[&#38386;&#32842;]</text><polygon fill="#181818" points="58,419.8594,48,423.8594,58,427.8594,54,423.8594" style="stroke:#181818;stroke-width:1.0;"/><line style="stroke:#181818;stroke-width:1.0;" x1="52" x2="161" y1="423.8594" y2="423.8594"/><text fill="#000000" font-family="sans-serif" font-size="13" lengthAdjust="spacing" textLength="52" x="64" y="419.1172">&#21453;&#39304;&#32467;&#26524;</text><line style="stroke:#000000;stroke-width:1.0;stroke-dasharray:2.0,2.0;" x1="20" x2="205" y1="432.8594" y2="432.8594"/><text fill="#000000" font-family="sans-serif" font-size="11" font-weight="bold" lengthAdjust="spacing" textLength="30.1533" x="25" y="443.4941">[&#19994;&#21153;]</text><polygon fill="#181818" points="58,464.125,48,468.125,58,472.125,54,468.125" style="stroke:#181818;stroke-width:1.0;"/><line style="stroke:#181818;stroke-width:1.0;" x1="52" x2="161" y1="468.125" y2="468.125"/><text fill="#000000" font-family="sans-serif" font-size="13" lengthAdjust="spacing" textLength="91" x="64" y="463.3828">&#23637;&#31034;&#19994;&#21153;&#20108;&#32500;&#30721;</text><line style="stroke:#000000;stroke-width:1.0;stroke-dasharray:2.0,2.0;" x1="10" x2="381" y1="484.125" y2="484.125"/><text fill="#000000" font-family="sans-serif" font-size="11" font-weight="bold" lengthAdjust="spacing" textLength="74.1533" x="15" y="494.7598">[&#36873;&#25321;&#28909;&#28857;&#38382;&#39064;]</text><polygon fill="#181818" points="252,515.3906,262,519.3906,252,523.3906,256,519.3906" style="stroke:#181818;stroke-width:1.0;"/><line style="stroke:#181818;stroke-width:1.0;" x1="172" x2="258" y1="519.3906" y2="519.3906"/><text fill="#000000" font-family="sans-serif" font-size="13" lengthAdjust="spacing" textLength="52" x="179" y="514.6484">&#25991;&#26412;&#25968;&#25454;</text><line style="stroke:#181818;stroke-width:1.0;" x1="274" x2="316" y1="548.7012" y2="548.7012"/><line style="stroke:#181818;stroke-width:1.0;" x1="316" x2="316" y1="548.7012" y2="561.7012"/><line style="stroke:#181818;stroke-width:1.0;" x1="275" x2="316" y1="561.7012" y2="561.7012"/><polygon fill="#181818" points="285,557.7012,275,561.7012,285,565.7012,281,561.7012" style="stroke:#181818;stroke-width:1.0;"/><text fill="#000000" font-family="sans-serif" font-size="13" lengthAdjust="spacing" textLength="78" x="281" y="543.959">&#22788;&#29702;&#25991;&#26412;&#25968;&#25454;</text><polygon fill="#181818" points="183,587.0117,173,591.0117,183,595.0117,179,591.0117" style="stroke:#181818;stroke-width:1.0;"/><line style="stroke:#181818;stroke-width:1.0;" x1="177" x2="268" y1="591.0117" y2="591.0117"/><text fill="#000000" font-family="sans-serif" font-size="13" lengthAdjust="spacing" textLength="52" x="189" y="586.2695">&#38382;&#35810;&#32467;&#26524;</text><polygon fill="#181818" points="58,616.3223,48,620.3223,58,624.3223,54,620.3223" style="stroke:#181818;stroke-width:1.0;"/><line style="stroke:#181818;stroke-width:1.0;" x1="52" x2="161" y1="620.3223" y2="620.3223"/><text fill="#000000" font-family="sans-serif" font-size="13" lengthAdjust="spacing" textLength="52" x="64" y="615.5801">&#21453;&#39304;&#32467;&#26524;</text><!--SRC=[XPBBJi9068NtynIp9yGz2v_065-XGXTD23HbS0rgf29GZ09AwWL248qKl2H0yN4wjxUmdPOsbLXcr_zyy_USqqfPLDIWV-ZjXEWBk3bI2PQ1Acb8oIggL42Gc3Q-dpYs7G5QyRY8Oj3XmH5kjx0n3vb2NWL0W32zxpt136Ij1JQwz6nAJrUyP_7XNKIKNHr_TEZ8ffq6VnY2iZVrvGpabKjozSfcKpQfWBZa3ldJrnvx6PFhfSlnmGf8MQISI4WEd0BXAO-2DQHHmrOVctFN1jZaZXkP_J3zJMXolYG7xzXclLYfrCO3wSn9qmefJmoZuz4vRLyaSS7Ij1ksPx7PaAvloACPKi9-xvDLw-5esxRHv6FzpqKHm5dsSNsGS5CqxrEEtQ3hR_fSZLOKSb4NVeUnZ_XlBwHR8-RxxbwIk1sz91VWES_9yT_X5m00]--></g></svg>