<?xml version="1.0" encoding="UTF-8" standalone="no"?><svg xmlns="http://www.w3.org/2000/svg" xmlns:xlink="http://www.w3.org/1999/xlink" contentStyleType="text/css" height="988px" preserveAspectRatio="none" style="width:852px;height:988px;background:#FFFFFF;" version="1.1" viewBox="0 0 852 988" width="852px" zoomAndPan="magnify"><defs/><g><rect fill="none" height="882.3848" style="stroke:#000000;stroke-width:1.5;" width="837" x="9" y="53.4883"/><rect fill="none" height="851.0742" style="stroke:#000000;stroke-width:1.5;" width="817" x="19" y="77.7988"/><rect fill="none" height="503.6582" style="stroke:#000000;stroke-width:1.5;" width="752" x="29" y="159.7305"/><rect fill="none" height="249.4844" style="stroke:#000000;stroke-width:1.5;" width="732" x="39" y="184.041"/><rect fill="none" height="153.5527" style="stroke:#000000;stroke-width:1.5;" width="712" x="49" y="272.9727"/><rect fill="none" height="124.2422" style="stroke:#000000;stroke-width:1.5;" width="712" x="49" y="489.8359"/><rect fill="none" height="184.8633" style="stroke:#000000;stroke-width:1.5;" width="777" x="49" y="677.3887"/><rect fill="none" height="46.6211" style="stroke:#000000;stroke-width:1.5;" width="430" x="386" y="701.6992"/><line style="stroke:#181818;stroke-width:0.5;stroke-dasharray:5.0,5.0;" x1="424" x2="424" y1="36.4883" y2="952.873"/><line style="stroke:#181818;stroke-width:0.5;stroke-dasharray:5.0,5.0;" x1="722" x2="722" y1="36.4883" y2="952.873"/><line style="stroke:#181818;stroke-width:0.5;stroke-dasharray:5.0,5.0;" x1="783" x2="783" y1="36.4883" y2="952.873"/><rect fill="#E2E2F0" height="30.4883" rx="2.5" ry="2.5" style="stroke:#181818;stroke-width:0.5;" width="57" x="396" y="5"/><text fill="#000000" font-family="sans-serif" font-size="14" lengthAdjust="spacing" textLength="43" x="403" y="25.5352">Phone</text><rect fill="#E2E2F0" height="30.4883" rx="2.5" ry="2.5" style="stroke:#181818;stroke-width:0.5;" width="57" x="396" y="951.873"/><text fill="#000000" font-family="sans-serif" font-size="14" lengthAdjust="spacing" textLength="43" x="403" y="972.4082">Phone</text><rect fill="#E2E2F0" height="30.4883" rx="2.5" ry="2.5" style="stroke:#181818;stroke-width:0.5;" width="57" x="694" y="5"/><text fill="#000000" font-family="sans-serif" font-size="14" lengthAdjust="spacing" textLength="43" x="701" y="25.5352">Server</text><rect fill="#E2E2F0" height="30.4883" rx="2.5" ry="2.5" style="stroke:#181818;stroke-width:0.5;" width="57" x="694" y="951.873"/><text fill="#000000" font-family="sans-serif" font-size="14" lengthAdjust="spacing" textLength="43" x="701" y="972.4082">Server</text><rect fill="#E2E2F0" height="30.4883" rx="2.5" ry="2.5" style="stroke:#181818;stroke-width:0.5;" width="45" x="761" y="5"/><text fill="#000000" font-family="sans-serif" font-size="14" lengthAdjust="spacing" textLength="31" x="768" y="25.5352">Lock</text><rect fill="#E2E2F0" height="30.4883" rx="2.5" ry="2.5" style="stroke:#181818;stroke-width:0.5;" width="45" x="761" y="951.873"/><text fill="#000000" font-family="sans-serif" font-size="14" lengthAdjust="spacing" textLength="31" x="768" y="972.4082">Lock</text><path d="M9,53.4883 L411,53.4883 L411,60.7988 L401,70.7988 L9,70.7988 L9,53.4883 " fill="#EEEEEE" style="stroke:#000000;stroke-width:1.5;"/><rect fill="none" height="882.3848" style="stroke:#000000;stroke-width:1.5;" width="837" x="9" y="53.4883"/><text fill="#000000" font-family="sans-serif" font-size="13" font-weight="bold" lengthAdjust="spacing" textLength="357" x="24" y="67.0566">AccessSaveManager.updateUserCredentialsSchedule</text><path d="M19,77.7988 L81,77.7988 L81,85.1094 L71,95.1094 L19,95.1094 L19,77.7988 " fill="#EEEEEE" style="stroke:#000000;stroke-width:1.5;"/><rect fill="none" height="851.0742" style="stroke:#000000;stroke-width:1.5;" width="817" x="19" y="77.7988"/><text fill="#000000" font-family="sans-serif" font-size="13" font-weight="bold" lengthAdjust="spacing" textLength="17" x="34" y="91.3672">alt</text><text fill="#000000" font-family="sans-serif" font-size="11" font-weight="bold" lengthAdjust="spacing" textLength="159" x="96" y="90.4336">[isSupportsSchedulePerUser]</text><line style="stroke:#181818;stroke-width:1.0;" x1="424.5" x2="466.5" y1="131.7305" y2="131.7305"/><line style="stroke:#181818;stroke-width:1.0;" x1="466.5" x2="466.5" y1="131.7305" y2="144.7305"/><line style="stroke:#181818;stroke-width:1.0;" x1="425.5" x2="466.5" y1="144.7305" y2="144.7305"/><polygon fill="#181818" points="435.5,140.7305,425.5,144.7305,435.5,148.7305,431.5,144.7305" style="stroke:#181818;stroke-width:1.0;"/><text fill="#000000" font-family="sans-serif" font-size="13" lengthAdjust="spacing" textLength="266" x="431.5" y="111.6777">ExecutorType.LoadIntentCommit.Schedule</text><text fill="#000000" font-family="sans-serif" font-size="13" lengthAdjust="spacing" textLength="151" x="431.5" y="126.9883">For every credential slot</text><path d="M29,159.7305 L373,159.7305 L373,167.041 L363,177.041 L29,177.041 L29,159.7305 " fill="#EEEEEE" style="stroke:#000000;stroke-width:1.5;"/><rect fill="none" height="503.6582" style="stroke:#000000;stroke-width:1.5;" width="752" x="29" y="159.7305"/><text fill="#000000" font-family="sans-serif" font-size="13" font-weight="bold" lengthAdjust="spacing" textLength="299" x="44" y="173.2988">CoreExecutor.executeLoadIntentAndCommit</text><path d="M39,184.041 L457,184.041 L457,191.3516 L447,201.3516 L39,201.3516 L39,184.041 " fill="#EEEEEE" style="stroke:#000000;stroke-width:1.5;"/><rect fill="none" height="249.4844" style="stroke:#000000;stroke-width:1.5;" width="732" x="39" y="184.041"/><text fill="#000000" font-family="sans-serif" font-size="13" font-weight="bold" lengthAdjust="spacing" textLength="373" x="54" y="197.6094">ScheduleCoreExecutor.clearCredentialBeforeLoadIntent</text><polygon fill="#181818" points="710.5,221.6621,720.5,225.6621,710.5,229.6621,714.5,225.6621" style="stroke:#181818;stroke-width:1.0;"/><line style="stroke:#181818;stroke-width:1.0;" x1="424.5" x2="716.5" y1="225.6621" y2="225.6621"/><text fill="#000000" font-family="sans-serif" font-size="13" lengthAdjust="spacing" textLength="233" x="431.5" y="220.9199">Get user credential schedule settings</text><path d="M59,206.3516 L59,231.3516 L419,231.3516 L419,216.3516 L409,206.3516 L59,206.3516 " fill="#FEFFDD" style="stroke:#181818;stroke-width:0.5;"/><path d="M409,206.3516 L409,216.3516 L419,216.3516 L409,206.3516 " fill="#FEFFDD" style="stroke:#181818;stroke-width:0.5;"/><text fill="#000000" font-family="sans-serif" font-size="13" lengthAdjust="spacing" textLength="339" x="65" y="223.9199">@GET("/locks/{lockID}/users/{otherUserID}/settings")</text><polygon fill="#181818" points="435.5,253.9727,425.5,257.9727,435.5,261.9727,431.5,257.9727" style="stroke:#181818;stroke-width:1.0;"/><line style="stroke:#181818;stroke-width:1.0;" x1="429.5" x2="721.5" y1="257.9727" y2="257.9727"/><text fill="#000000" font-family="sans-serif" font-size="13" lengthAdjust="spacing" textLength="120" x="441.5" y="253.2305">ScheduleCredential</text><path d="M49,272.9727 L116,272.9727 L116,280.2832 L106,290.2832 L49,290.2832 L49,272.9727 " fill="#EEEEEE" style="stroke:#000000;stroke-width:1.5;"/><rect fill="none" height="153.5527" style="stroke:#000000;stroke-width:1.5;" width="712" x="49" y="272.9727"/><text fill="#000000" font-family="sans-serif" font-size="13" font-weight="bold" lengthAdjust="spacing" textLength="22" x="64" y="286.541">opt</text><text fill="#000000" font-family="sans-serif" font-size="11" font-weight="bold" lengthAdjust="spacing" textLength="209" x="131" y="285.6074">[has schedule (has lockID or userID)]</text><line style="stroke:#181818;stroke-width:1.0;" x1="424.5" x2="466.5" y1="311.5938" y2="311.5938"/><line style="stroke:#181818;stroke-width:1.0;" x1="466.5" x2="466.5" y1="311.5938" y2="324.5938"/><line style="stroke:#181818;stroke-width:1.0;" x1="425.5" x2="466.5" y1="324.5938" y2="324.5938"/><polygon fill="#181818" points="435.5,320.5938,425.5,324.5938,435.5,328.5938,431.5,324.5938" style="stroke:#181818;stroke-width:1.0;"/><text fill="#000000" font-family="sans-serif" font-size="13" lengthAdjust="spacing" textLength="284" x="431.5" y="306.8516">ExecutorType.DeleteIntentCommit (Schedule)</text><polygon fill="#181818" points="710.5,352.9043,720.5,356.9043,710.5,360.9043,714.5,356.9043" style="stroke:#181818;stroke-width:1.0;"/><line style="stroke:#181818;stroke-width:1.0;" x1="424.5" x2="716.5" y1="356.9043" y2="356.9043"/><text fill="#000000" font-family="sans-serif" font-size="13" lengthAdjust="spacing" textLength="141" x="431.5" y="352.1621">Intent Delete Schedule</text><path d="M59,337.5938 L59,362.5938 L419,362.5938 L419,347.5938 L409,337.5938 L59,337.5938 " fill="#FEFFDD" style="stroke:#181818;stroke-width:0.5;"/><path d="M409,337.5938 L409,347.5938 L419,347.5938 L409,337.5938 " fill="#FEFFDD" style="stroke:#181818;stroke-width:0.5;"/><text fill="#000000" font-family="sans-serif" font-size="13" lengthAdjust="spacing" textLength="339" x="65" y="355.1621">@PUT("/locks/{lockID}/users/{otherUserID}/settings")</text><polygon fill="#181818" points="435.5,385.2148,425.5,389.2148,435.5,393.2148,431.5,389.2148" style="stroke:#181818;stroke-width:1.0;"/><line style="stroke:#181818;stroke-width:1.0;" x1="429.5" x2="721.5" y1="389.2148" y2="389.2148"/><text fill="#000000" font-family="sans-serif" font-size="13" lengthAdjust="spacing" textLength="61" x="441.5" y="384.4727">[Deleting]</text><polygon fill="#181818" points="710.5,414.5254,720.5,418.5254,710.5,422.5254,714.5,418.5254" style="stroke:#181818;stroke-width:1.0;"/><line style="stroke:#181818;stroke-width:1.0;" x1="424.5" x2="716.5" y1="418.5254" y2="418.5254"/><text fill="#000000" font-family="sans-serif" font-size="13" lengthAdjust="spacing" textLength="154" x="431.5" y="413.7832">Commit Delete Schedule</text><line style="stroke:#181818;stroke-width:1.0;" x1="424.5" x2="466.5" y1="461.8359" y2="461.8359"/><line style="stroke:#181818;stroke-width:1.0;" x1="466.5" x2="466.5" y1="461.8359" y2="474.8359"/><line style="stroke:#181818;stroke-width:1.0;" x1="425.5" x2="466.5" y1="474.8359" y2="474.8359"/><polygon fill="#181818" points="435.5,470.8359,425.5,474.8359,435.5,478.8359,431.5,474.8359" style="stroke:#181818;stroke-width:1.0;"/><text fill="#000000" font-family="sans-serif" font-size="13" lengthAdjust="spacing" textLength="119" x="431.5" y="457.0938">Get slot and userId</text><path d="M49,489.8359 L402,489.8359 L402,497.1465 L392,507.1465 L49,507.1465 L49,489.8359 " fill="#EEEEEE" style="stroke:#000000;stroke-width:1.5;"/><rect fill="none" height="124.2422" style="stroke:#000000;stroke-width:1.5;" width="712" x="49" y="489.8359"/><text fill="#000000" font-family="sans-serif" font-size="13" font-weight="bold" lengthAdjust="spacing" textLength="308" x="64" y="503.4043">ScheduleCoreExecutor.executorLoadIntentAPI</text><polygon fill="#181818" points="710.5,527.457,720.5,531.457,710.5,535.457,714.5,531.457" style="stroke:#181818;stroke-width:1.0;"/><line style="stroke:#181818;stroke-width:1.0;" x1="424.5" x2="716.5" y1="531.457" y2="531.457"/><text fill="#000000" font-family="sans-serif" font-size="13" lengthAdjust="spacing" textLength="131" x="431.5" y="526.7148">Intent Load Schedule</text><path d="M59,512.1465 L59,537.1465 L419,537.1465 L419,522.1465 L409,512.1465 L59,512.1465 " fill="#FEFFDD" style="stroke:#181818;stroke-width:0.5;"/><path d="M409,512.1465 L409,522.1465 L419,522.1465 L409,512.1465 " fill="#FEFFDD" style="stroke:#181818;stroke-width:0.5;"/><text fill="#000000" font-family="sans-serif" font-size="13" lengthAdjust="spacing" textLength="339" x="65" y="529.7148">@PUT("/locks/{lockID}/users/{otherUserID}/settings")</text><polygon fill="#181818" points="435.5,559.7676,425.5,563.7676,435.5,567.7676,431.5,563.7676" style="stroke:#181818;stroke-width:1.0;"/><line style="stroke:#181818;stroke-width:1.0;" x1="429.5" x2="721.5" y1="563.7676" y2="563.7676"/><text fill="#000000" font-family="sans-serif" font-size="13" lengthAdjust="spacing" textLength="56" x="441.5" y="559.0254">[Created]</text><line style="stroke:#181818;stroke-width:1.0;" x1="424.5" x2="466.5" y1="593.0781" y2="593.0781"/><line style="stroke:#181818;stroke-width:1.0;" x1="466.5" x2="466.5" y1="593.0781" y2="606.0781"/><line style="stroke:#181818;stroke-width:1.0;" x1="425.5" x2="466.5" y1="606.0781" y2="606.0781"/><polygon fill="#181818" points="435.5,602.0781,425.5,606.0781,435.5,610.0781,431.5,606.0781" style="stroke:#181818;stroke-width:1.0;"/><text fill="#000000" font-family="sans-serif" font-size="13" lengthAdjust="spacing" textLength="189" x="431.5" y="588.3359">Attach slot to server resopnse</text><line style="stroke:#181818;stroke-width:1.0;" x1="424.5" x2="466.5" y1="642.3887" y2="642.3887"/><line style="stroke:#181818;stroke-width:1.0;" x1="466.5" x2="466.5" y1="642.3887" y2="655.3887"/><line style="stroke:#181818;stroke-width:1.0;" x1="425.5" x2="466.5" y1="655.3887" y2="655.3887"/><polygon fill="#181818" points="435.5,651.3887,425.5,655.3887,435.5,659.3887,431.5,655.3887" style="stroke:#181818;stroke-width:1.0;"/><text fill="#000000" font-family="sans-serif" font-size="13" lengthAdjust="spacing" textLength="203" x="431.5" y="637.6465">createLoadCommitExecutorType</text><path d="M49,677.3887 L325,677.3887 L325,684.6992 L315,694.6992 L49,694.6992 L49,677.3887 " fill="#EEEEEE" style="stroke:#000000;stroke-width:1.5;"/><rect fill="none" height="184.8633" style="stroke:#000000;stroke-width:1.5;" width="777" x="49" y="677.3887"/><text fill="#000000" font-family="sans-serif" font-size="13" font-weight="bold" lengthAdjust="spacing" textLength="231" x="64" y="690.957">CoreExecutor.executeLoadCommit</text><path d="M386,701.6992 L697,701.6992 L697,709.0098 L687,719.0098 L386,719.0098 L386,701.6992 " fill="#EEEEEE" style="stroke:#000000;stroke-width:1.5;"/><rect fill="none" height="46.6211" style="stroke:#000000;stroke-width:1.5;" width="430" x="386" y="701.6992"/><text fill="#000000" font-family="sans-serif" font-size="13" font-weight="bold" lengthAdjust="spacing" textLength="266" x="401" y="715.2676">ScheduleCoreExecutor.executorLoadBle</text><polygon fill="#181818" points="771.5,736.3203,781.5,740.3203,771.5,744.3203,775.5,740.3203" style="stroke:#181818;stroke-width:1.0;"/><line style="stroke:#181818;stroke-width:1.0;" x1="424.5" x2="777.5" y1="740.3203" y2="740.3203"/><text fill="#000000" font-family="sans-serif" font-size="13" lengthAdjust="spacing" textLength="135" x="431.5" y="735.5781">Load Schedule to slot</text><polygon fill="#181818" points="710.5,775.6309,720.5,779.6309,710.5,783.6309,714.5,779.6309" style="stroke:#181818;stroke-width:1.0;"/><line style="stroke:#181818;stroke-width:1.0;" x1="424.5" x2="716.5" y1="779.6309" y2="779.6309"/><text fill="#000000" font-family="sans-serif" font-size="13" lengthAdjust="spacing" textLength="144" x="431.5" y="774.8887">Commit Load Schedule</text><path d="M59,760.3203 L59,785.3203 L419,785.3203 L419,770.3203 L409,760.3203 L59,760.3203 " fill="#FEFFDD" style="stroke:#181818;stroke-width:0.5;"/><path d="M409,760.3203 L409,770.3203 L419,770.3203 L409,760.3203 " fill="#FEFFDD" style="stroke:#181818;stroke-width:0.5;"/><text fill="#000000" font-family="sans-serif" font-size="13" lengthAdjust="spacing" textLength="339" x="65" y="777.8887">@PUT("/locks/{lockID}/users/{otherUserID}/settings")</text><polygon fill="#181818" points="435.5,807.9414,425.5,811.9414,435.5,815.9414,431.5,811.9414" style="stroke:#181818;stroke-width:1.0;"/><line style="stroke:#181818;stroke-width:1.0;" x1="429.5" x2="721.5" y1="811.9414" y2="811.9414"/><text fill="#000000" font-family="sans-serif" font-size="13" lengthAdjust="spacing" textLength="53" x="441.5" y="807.1992">[Loaded]</text><line style="stroke:#181818;stroke-width:1.0;" x1="424.5" x2="466.5" y1="841.252" y2="841.252"/><line style="stroke:#181818;stroke-width:1.0;" x1="466.5" x2="466.5" y1="841.252" y2="854.252"/><line style="stroke:#181818;stroke-width:1.0;" x1="425.5" x2="466.5" y1="854.252" y2="854.252"/><polygon fill="#181818" points="435.5,850.252,425.5,854.252,435.5,858.252,431.5,854.252" style="stroke:#181818;stroke-width:1.0;"/><text fill="#000000" font-family="sans-serif" font-size="13" lengthAdjust="spacing" textLength="189" x="431.5" y="836.5098">Attach slot to server resopnse</text><line style="stroke:#000000;stroke-width:1.0;stroke-dasharray:2.0,2.0;" x1="19" x2="836" y1="870.252" y2="870.252"/><line style="stroke:#181818;stroke-width:1.0;" x1="424.5" x2="466.5" y1="907.873" y2="907.873"/><line style="stroke:#181818;stroke-width:1.0;" x1="466.5" x2="466.5" y1="907.873" y2="920.873"/><line style="stroke:#181818;stroke-width:1.0;" x1="425.5" x2="466.5" y1="920.873" y2="920.873"/><polygon fill="#181818" points="435.5,916.873,425.5,920.873,435.5,924.873,431.5,920.873" style="stroke:#181818;stroke-width:1.0;"/><text fill="#000000" font-family="sans-serif" font-size="13" lengthAdjust="spacing" textLength="266" x="431.5" y="887.8203">ExecutorType.LoadIntentCommit.Schedule</text><text fill="#000000" font-family="sans-serif" font-size="13" lengthAdjust="spacing" textLength="151" x="431.5" y="903.1309">For every credential slot</text><!--SRC=[jLLDJ-Cm4BtdLumuTG-qznvMMmgBAe5KgN023fRzQ2fSEx8dQD5g_pjslfgGq9O58bLraiwRzp5sryxc6SsaXFShyOnhOSGQRfndIZ1kFTpSGS7mHcY_aYbKhf5Gk8HcslXLdcNMSVDg2HUBYb_4QvbQ0phzMIscTF47CcVhRbuoZA-iK0l30NvkjziDZskOU_FREi8pt0l9XW1vRRc1NXVKvzQXnXoZM607EpEgH6wgTfLrhmw2r10joMTu36ztU1sOZhuLN60R15w2AGyMT7XNhSY3UMFMleTZB8Cq7dbAloulRaOd4stbav_yZL-Byt-J21bkBQUbm_5PZNRoeuTNqMaPtyXjQFMARCQK2h-ZEuft9GCAUUH5ttwpmq6VGuFHZff6DQ43U8snPJMLKDIPnNrkBcy_x-QmetS5bL3oSAI2IlaX1J0gsNVVipgENDmQ98mgGrB7pZkgHMlBB1V9qM74ilU5V7KC0n64QGxdb7f83ixZZ5d8jFI9RTY91PQ3jvdn-9ZXikWQnPUHjcSz6KBPVrPzx8XgHtOsu7h3zYgu7CXsCYgajq_HlNhVJkxxSNzbr0CnnyPlK_xVX6krqAs7t_G_5Nk5poi0]--></g></svg>