<?xml version="1.0" encoding="us-ascii" standalone="no"?><svg xmlns="http://www.w3.org/2000/svg" xmlns:xlink="http://www.w3.org/1999/xlink" contentStyleType="text/css" height="321px" preserveAspectRatio="none" style="width:639px;height:321px;background:#FFFFFF;" version="1.1" viewBox="0 0 639 321" width="639px" zoomAndPan="magnify"><defs/><g><!--cluster ???--><g id="cluster_&#26426;&#22120;&#20154;"><rect fill="none" height="217" rx="2.5" ry="2.5" style="stroke:#181818;stroke-width:1.0;" width="525.07" x="108" y="7"/><text fill="#000000" font-family="sans-serif" font-size="14" font-weight="bold" lengthAdjust="spacing" textLength="42" x="349.535" y="22.5352">&#26426;&#22120;&#20154;</text></g><g id="elem_UC_Choose_Lang"><ellipse cx="175.2674" cy="145.0036" fill="#F1F1F1" rx="51.2674" ry="14.7036" style="stroke:#181818;stroke-width:0.5;"/><text fill="#000000" font-family="sans-serif" font-size="14" lengthAdjust="spacing" textLength="56" x="144.2893" y="149.0167">&#36873;&#25321;&#35821;&#35328;</text></g><g id="elem_UC_QA_Audio"><ellipse cx="370.5274" cy="185.0036" fill="#F1F1F1" rx="51.2674" ry="14.7036" style="stroke:#181818;stroke-width:0.5;"/><text fill="#000000" font-family="sans-serif" font-size="14" lengthAdjust="spacing" textLength="56" x="339.5493" y="189.0167">&#35821;&#38899;&#38382;&#35810;</text></g><g id="elem_UC_QA_Text"><ellipse cx="565.7974" cy="59.0036" fill="#F1F1F1" rx="51.2674" ry="14.7036" style="stroke:#181818;stroke-width:0.5;"/><text fill="#000000" font-family="sans-serif" font-size="14" lengthAdjust="spacing" textLength="56" x="534.8193" y="63.0167">&#25991;&#23383;&#38382;&#35810;</text></g><g id="elem_UC_HotQuestion"><ellipse cx="370.5274" cy="57.0036" fill="#F1F1F1" rx="51.2674" ry="14.7036" style="stroke:#181818;stroke-width:0.5;"/><text fill="#000000" font-family="sans-serif" font-size="14" lengthAdjust="spacing" textLength="56" x="339.5493" y="61.0167">&#28909;&#28857;&#38382;&#39064;</text></g><g id="elem_UC_Place_List"><ellipse cx="370.5274" cy="121.0036" fill="#F1F1F1" rx="51.2674" ry="14.7036" style="stroke:#181818;stroke-width:0.5;"/><text fill="#000000" font-family="sans-serif" font-size="14" lengthAdjust="spacing" textLength="56" x="339.5493" y="125.0167">&#36873;&#25321;&#22320;&#28857;</text></g><g id="elem_UC_Nav"><ellipse cx="565.7974" cy="148.0036" fill="#F1F1F1" rx="51.2674" ry="14.7036" style="stroke:#181818;stroke-width:0.5;"/><text fill="#000000" font-family="sans-serif" font-size="14" lengthAdjust="spacing" textLength="56" x="534.8193" y="152.0167">&#23548;&#33322;&#24102;&#36335;</text></g><!--entity u--><g id="elem_u"><ellipse cx="20" cy="115.25" fill="#F1F1F1" rx="8" ry="8" style="stroke:#181818;stroke-width:0.5;"/><path d="M20,123.25 L20,150.25 M7,131.25 L33,131.25 M20,150.25 L7,165.25 M20,150.25 L33,165.25 " fill="none" style="stroke:#181818;stroke-width:0.5;"/><text fill="#000000" font-family="sans-serif" font-size="14" lengthAdjust="spacing" textLength="28" x="6" y="180.2852">&#29992;&#25143;</text></g><!--entity UC_Sport_Query--><g id="elem_UC_Sport_Query"><ellipse cx="370.53" cy="248.25" fill="#F1F1F1" rx="8" ry="8" style="stroke:#181818;stroke-width:0.5;"/><path d="M370.53,256.25 L370.53,283.25 M357.53,264.25 L383.53,264.25 M370.53,283.25 L357.53,298.25 M370.53,283.25 L383.53,298.25 " fill="none" style="stroke:#181818;stroke-width:0.5;"/><text fill="#000000" font-family="sans-serif" font-size="14" lengthAdjust="spacing" textLength="112" x="314.53" y="313.2852">UC_Sport_Query</text></g><!--link u to UC_Choose_Lang--><g id="link_u_UC_Choose_Lang"><path d="M34.33,145 C54.07,145 86.12,145 117.56,145 " fill="none" id="u-to-UC_Choose_Lang" style="stroke:#181818;stroke-width:1.0;"/><polygon fill="#181818" points="123.56,145,114.56,141,118.56,145,114.56,149,123.56,145" style="stroke:#181818;stroke-width:1.0;"/><text fill="#000000" font-family="sans-serif" font-size="13" lengthAdjust="spacing" textLength="26" x="65" y="141.5684">&#28857;&#20987;</text></g><!--link UC_Choose_Lang to UC_QA_Audio--><g id="link_UC_Choose_Lang_UC_QA_Audio"><path d="M217.73,153.58 C250.34,160.33 289.6747,168.4631 322.2647,175.2131 " fill="none" id="UC_Choose_Lang-to-UC_QA_Audio" style="stroke:#181818;stroke-width:1.0;"/><polygon fill="#181818" points="328.14,176.43,320.1383,170.6878,323.2439,175.4159,318.5158,178.5215,328.14,176.43" style="stroke:#181818;stroke-width:1.0;"/><text fill="#000000" font-family="sans-serif" font-size="13" lengthAdjust="spacing" textLength="26" x="257.53" y="159.5684">&#35821;&#38899;</text></g><!--link UC_Choose_Lang to UC_HotQuestion--><g id="link_UC_Choose_Lang_UC_HotQuestion"><path d="M202.94,132.16 C218.52,124.71 238.59,115.21 256.53,107 C285.21,93.87 312.711,81.7303 335.621,71.7303 " fill="none" id="UC_Choose_Lang-to-UC_HotQuestion" style="stroke:#181818;stroke-width:1.0;"/><polygon fill="#181818" points="341.12,69.33,331.2714,69.2644,336.5375,71.3302,334.4717,76.5964,341.12,69.33" style="stroke:#181818;stroke-width:1.0;"/><text fill="#000000" font-family="sans-serif" font-size="13" lengthAdjust="spacing" textLength="26" x="257.53" y="91.5684">&#28857;&#20987;</text></g><!--link UC_Choose_Lang to UC_Sport_Query--><g id="link_UC_Choose_Lang_UC_Sport_Query"><path d="M196.22,158.73 C223.81,177.71 269.7073,209.2985 309.2173,236.4885 " fill="none" id="UC_Choose_Lang-to-UC_Sport_Query" style="stroke:#181818;stroke-width:1.0;"/><polygon fill="#181818" points="314.16,239.89,309.0136,231.4927,310.0411,237.0555,304.4783,238.0829,314.16,239.89" style="stroke:#181818;stroke-width:1.0;"/><text fill="#000000" font-family="sans-serif" font-size="13" lengthAdjust="spacing" textLength="26" x="257.53" y="200.5684">&#28857;&#20987;</text></g><!--link UC_Choose_Lang to UC_Place_List--><g id="link_UC_Choose_Lang_UC_Place_List"><path d="M223.05,139.19 C253.33,135.43 286.6358,131.2898 316.8958,127.5298 " fill="none" id="UC_Choose_Lang-to-UC_Place_List" style="stroke:#181818;stroke-width:1.0;"/><polygon fill="#181818" points="322.85,126.79,313.4255,123.9303,317.8882,127.4065,314.4119,131.8692,322.85,126.79" style="stroke:#181818;stroke-width:1.0;"/><text fill="#000000" font-family="sans-serif" font-size="13" lengthAdjust="spacing" textLength="26" x="257.53" y="128.5684">&#28857;&#20987;</text></g><!--link UC_Place_List to UC_Nav--><g id="link_UC_Place_List_UC_Nav"><path d="M417.34,127.39 C448.03,131.68 482.3578,136.4794 513.0478,140.7694 " fill="none" id="UC_Place_List-to-UC_Nav" style="stroke:#181818;stroke-width:1.0;"/><polygon fill="#181818" points="518.99,141.6,510.6304,136.3926,514.0381,140.9078,509.5229,144.3155,518.99,141.6" style="stroke:#181818;stroke-width:1.0;"/><text fill="#000000" font-family="sans-serif" font-size="13" lengthAdjust="spacing" textLength="26" x="457.53" y="129.5684">&#28857;&#20987;</text></g><!--link UC_HotQuestion to UC_QA_Text--><g id="link_UC_HotQuestion_UC_QA_Text"><path d="M422.06,57.52 C450.47,57.81 479.8203,58.1188 508.2403,58.4088 " fill="none" id="UC_HotQuestion-to-UC_QA_Text" style="stroke:#181818;stroke-width:1.0;"/><polygon fill="#181818" points="514.24,58.47,505.2813,54.3784,509.2403,58.419,505.1997,62.378,514.24,58.47" style="stroke:#181818;stroke-width:1.0;"/><text fill="#000000" font-family="sans-serif" font-size="13" lengthAdjust="spacing" textLength="26" x="457.53" y="54.5684">&#28857;&#20987;</text></g><!--link UC_QA_Audio to UC_Nav--><g id="link_UC_QA_Audio_UC_Nav"><path d="M413.95,176.88 C446.06,170.73 484.0871,163.4484 516.2571,157.2884 " fill="none" id="UC_QA_Audio-to-UC_Nav" style="stroke:#181818;stroke-width:1.0;"/><polygon fill="#181818" points="522.15,156.16,512.5583,153.924,517.2392,157.1003,514.0629,161.7812,522.15,156.16" style="stroke:#181818;stroke-width:1.0;"/><text fill="#000000" font-family="sans-serif" font-size="13" lengthAdjust="spacing" textLength="26" x="457.53" y="161.5684">&#24847;&#22270;</text></g><!--SRC=[XT51IyCm50VmUpx5e_Tz0G_2sCM3Y4Czbz35hL0MQH9HH1WgREB1YpZ5WR23LA5My33jXf_6jEctC9khQwgo75z-x_7-YKTsEN0AljjiSMYuFd6uIzi8EvpwOALNGT8RMO0P23Izm-scHo0PnF8s-8nZE4AWZs34mOo0bNNEauj75OKgwCowTcfshKKf8_QwRZMnPjdzQzP_Lj4mn_MgNHKDbveokUxAiFzBRfC3RiBqD4nFtZNCXZSvNAEyBWYRnVfZMJbuqIqvtlImetTrMMcmZ2QgzoJV7jGeokq6taV7I42bibhA2IkWPyhk69NgSvgdrExx4VvnXTMNZTpQepwtjVOFbz55HaCModEe0ngYkCuYoVGN3FQJpXYJd5tAkuyl]--></g></svg>