<?xml version="1.0" encoding="us-ascii" standalone="no"?><svg xmlns="http://www.w3.org/2000/svg" xmlns:xlink="http://www.w3.org/1999/xlink" contentStyleType="text/css" height="309px" preserveAspectRatio="none" style="width:629px;height:309px;background:#FFFFFF;" version="1.1" viewBox="0 0 629 309" width="629px" zoomAndPan="magnify"><defs/><g><!--cluster ???--><g id="cluster_&#26426;&#22120;&#20154;"><rect fill="none" height="296" rx="2.5" ry="2.5" style="stroke:#181818;stroke-width:1.0;" width="515.6" x="108" y="7"/><text fill="#000000" font-family="sans-serif" font-size="14" font-weight="bold" lengthAdjust="spacing" textLength="42" x="344.8" y="22.5352">&#26426;&#22120;&#20154;</text></g><g id="elem_UC_Choose_Lang"><ellipse cx="175.2674" cy="153.0036" fill="#F1F1F1" rx="51.2674" ry="14.7036" style="stroke:#181818;stroke-width:0.5;"/><text fill="#000000" font-family="sans-serif" font-size="14" lengthAdjust="spacing" textLength="56" x="144.2893" y="157.0167">&#36873;&#25321;&#35821;&#35328;</text></g><g id="elem_UC_QA_Audio"><ellipse cx="365.7974" cy="185.0036" fill="#F1F1F1" rx="51.2674" ry="14.7036" style="stroke:#181818;stroke-width:0.5;"/><text fill="#000000" font-family="sans-serif" font-size="14" lengthAdjust="spacing" textLength="56" x="334.8193" y="189.0167">&#35821;&#38899;&#38382;&#35810;</text></g><g id="elem_UC_QA_Text"><ellipse cx="556.3374" cy="59.0036" fill="#F1F1F1" rx="51.2674" ry="14.7036" style="stroke:#181818;stroke-width:0.5;"/><text fill="#000000" font-family="sans-serif" font-size="14" lengthAdjust="spacing" textLength="56" x="525.3593" y="63.0167">&#25991;&#23383;&#38382;&#35810;</text></g><g id="elem_UC_HotQuestion"><ellipse cx="365.7974" cy="57.0036" fill="#F1F1F1" rx="51.2674" ry="14.7036" style="stroke:#181818;stroke-width:0.5;"/><text fill="#000000" font-family="sans-serif" font-size="14" lengthAdjust="spacing" textLength="56" x="334.8193" y="61.0167">&#28909;&#28857;&#38382;&#39064;</text></g><g id="elem_UC_Sport_Query"><ellipse cx="556.3374" cy="242.0036" fill="#F1F1F1" rx="51.2674" ry="14.7036" style="stroke:#181818;stroke-width:0.5;"/><text fill="#000000" font-family="sans-serif" font-size="14" lengthAdjust="spacing" textLength="56" x="525.3593" y="246.0167">&#36187;&#20107;&#26597;&#35810;</text></g><g id="elem_UC_Place_List"><ellipse cx="365.7974" cy="121.0036" fill="#F1F1F1" rx="51.2674" ry="14.7036" style="stroke:#181818;stroke-width:0.5;"/><text fill="#000000" font-family="sans-serif" font-size="14" lengthAdjust="spacing" textLength="56" x="334.8193" y="125.0167">&#36873;&#25321;&#22320;&#28857;</text></g><g id="elem_UC_Nav"><ellipse cx="556.3374" cy="161.0036" fill="#F1F1F1" rx="51.2674" ry="14.7036" style="stroke:#181818;stroke-width:0.5;"/><text fill="#000000" font-family="sans-serif" font-size="14" lengthAdjust="spacing" textLength="56" x="525.3593" y="165.0167">&#23548;&#33322;&#24102;&#36335;</text></g><!--entity u--><g id="elem_u"><ellipse cx="20" cy="123.26" fill="#F1F1F1" rx="8" ry="8" style="stroke:#181818;stroke-width:0.5;"/><path d="M20,131.26 L20,158.26 M7,139.26 L33,139.26 M20,158.26 L7,173.26 M20,158.26 L33,173.26 " fill="none" style="stroke:#181818;stroke-width:0.5;"/><text fill="#000000" font-family="sans-serif" font-size="14" lengthAdjust="spacing" textLength="28" x="6" y="188.2952">&#29992;&#25143;</text></g><!--link u to UC_Choose_Lang--><g id="link_u_UC_Choose_Lang"><path d="M34.33,153 C54.07,153 86.12,153 117.56,153 " fill="none" id="u-to-UC_Choose_Lang" style="stroke:#181818;stroke-width:1.0;"/><polygon fill="#181818" points="123.56,153,114.56,149,118.56,153,114.56,157,123.56,153" style="stroke:#181818;stroke-width:1.0;"/><text fill="#000000" font-family="sans-serif" font-size="13" lengthAdjust="spacing" textLength="26" x="65" y="149.5684">&#28857;&#20987;</text></g><!--link UC_Choose_Lang to UC_QA_Audio--><g id="link_UC_Choose_Lang_UC_QA_Audio"><path d="M203.1,165.64 C218.39,172.17 238.12,179.5 256.53,183 C275.37,186.59 290.39,187.643 308.85,187.603 " fill="none" id="UC_Choose_Lang-to-UC_QA_Audio" style="stroke:#181818;stroke-width:1.0;"/><polygon fill="#181818" points="314.85,187.59,305.8414,183.6095,309.85,187.6008,305.8587,191.6095,314.85,187.59" style="stroke:#181818;stroke-width:1.0;"/><text fill="#000000" font-family="sans-serif" font-size="13" lengthAdjust="spacing" textLength="26" x="257.53" y="179.5684">&#35821;&#38899;</text></g><!--link UC_Choose_Lang to UC_HotQuestion--><g id="link_UC_Choose_Lang_UC_HotQuestion"><path d="M200.79,140.01 C216.65,131.65 237.77,120.59 256.53,111 C284.59,96.66 311.5608,83.2478 333.5408,72.3878 " fill="none" id="UC_Choose_Lang-to-UC_HotQuestion" style="stroke:#181818;stroke-width:1.0;"/><polygon fill="#181818" points="338.92,69.73,329.0793,70.1305,334.4373,71.9448,332.623,77.3029,338.92,69.73" style="stroke:#181818;stroke-width:1.0;"/><text fill="#000000" font-family="sans-serif" font-size="13" lengthAdjust="spacing" textLength="26" x="257.53" y="94.5684">&#28857;&#20987;</text></g><!--link UC_Choose_Lang to UC_Sport_Query--><g id="link_UC_Choose_Lang_UC_Sport_Query"><path d="M193.7,167.14 C218.7,186.45 266.96,220.24 314.53,234 C379.63,252.83 452.7883,251.498 502.1283,247.638 " fill="none" id="UC_Choose_Lang-to-UC_Sport_Query" style="stroke:#181818;stroke-width:1.0;"/><polygon fill="#181818" points="508.11,247.17,498.8254,243.8841,503.1252,247.56,499.4494,251.8598,508.11,247.17" style="stroke:#181818;stroke-width:1.0;"/><text fill="#000000" font-family="sans-serif" font-size="13" lengthAdjust="spacing" textLength="26" x="352.8" y="230.5684">&#28857;&#20987;</text></g><!--link UC_Choose_Lang to UC_Place_List--><g id="link_UC_Choose_Lang_UC_Place_List"><path d="M219.99,145.58 C250.34,140.43 284.7045,134.5931 315.0745,129.4431 " fill="none" id="UC_Choose_Lang-to-UC_Place_List" style="stroke:#181818;stroke-width:1.0;"/><polygon fill="#181818" points="320.99,128.44,311.4479,126.001,316.0604,129.2759,312.7854,133.8884,320.99,128.44" style="stroke:#181818;stroke-width:1.0;"/><text fill="#000000" font-family="sans-serif" font-size="13" lengthAdjust="spacing" textLength="26" x="257.53" y="132.5684">&#28857;&#20987;</text></g><!--link UC_Place_List to UC_Nav--><g id="link_UC_Place_List_UC_Nav"><path d="M407.71,129.68 C439.23,136.37 476.7407,144.3244 508.3107,151.0244 " fill="none" id="UC_Place_List-to-UC_Nav" style="stroke:#181818;stroke-width:1.0;"/><polygon fill="#181818" points="514.18,152.27,506.2065,146.4887,509.2889,151.232,504.5457,154.3144,514.18,152.27" style="stroke:#181818;stroke-width:1.0;"/><text fill="#000000" font-family="sans-serif" font-size="13" lengthAdjust="spacing" textLength="26" x="448.07" y="135.5684">&#28857;&#20987;</text></g><!--link UC_HotQuestion to UC_QA_Text--><g id="link_UC_HotQuestion_UC_QA_Text"><path d="M417.33,57.54 C444.38,57.82 471.6003,58.1179 498.6703,58.3979 " fill="none" id="UC_HotQuestion-to-UC_QA_Text" style="stroke:#181818;stroke-width:1.0;"/><polygon fill="#181818" points="504.67,58.46,495.7119,54.3671,499.6703,58.4083,495.6291,62.3667,504.67,58.46" style="stroke:#181818;stroke-width:1.0;"/><text fill="#000000" font-family="sans-serif" font-size="13" lengthAdjust="spacing" textLength="26" x="448.07" y="54.5684">&#28857;&#20987;</text></g><!--link UC_QA_Audio to UC_Sport_Query--><g id="link_UC_QA_Audio_UC_Sport_Query"><path d="M402.26,195.72 C435.97,205.91 480.6371,219.4126 514.2871,229.5926 " fill="none" id="UC_QA_Audio-to-UC_Sport_Query" style="stroke:#181818;stroke-width:1.0;"/><polygon fill="#181818" points="520.03,231.33,512.5738,224.8953,515.2442,229.8822,510.2573,232.5525,520.03,231.33" style="stroke:#181818;stroke-width:1.0;"/><text fill="#000000" font-family="sans-serif" font-size="13" lengthAdjust="spacing" textLength="26" x="448.07" y="207.5684">&#24847;&#22270;</text></g><!--link UC_QA_Audio to UC_Nav--><g id="link_UC_QA_Audio_UC_Nav"><path d="M416.5,181.93 C434.94,180.52 456,178.57 475.07,176 C487.71,174.3 495.4946,173.0555 507.9146,170.7055 " fill="none" id="UC_QA_Audio-to-UC_Nav" style="stroke:#181818;stroke-width:1.0;"/><polygon fill="#181818" points="513.81,169.59,504.2233,167.3329,508.8972,170.5196,505.7106,175.1935,513.81,169.59" style="stroke:#181818;stroke-width:1.0;"/><text fill="#000000" font-family="sans-serif" font-size="13" lengthAdjust="spacing" textLength="26" x="448.07" y="172.5684">&#24847;&#22270;</text></g><!--SRC=[XT51IyCm50VmUp_5e_Tz0G_2sCM3Y4Czbz35hL0MQL9HH1WgRBA35t7A1eE1KeLPGMHQnK-pfEstC5jNrzJASan-UNd_5nllCs047AlUO52p76moYpGrP3BYW1vUUw8pqG5HSBNP6MhMRGnY4F0xRne4SAA1N2x59g8OzBXrARgFaJ-ElDRyrbx5g3G8eTZOb5TLB5ayV8rxpv4_Id6rR9JTcaLKAMxQVDpx8tVn4LDXU3uEppuaZ4UtATmWhEfYEe-bll_MdmPTCRpFLDqv80upf7UEYvBnmOkid-9j6vaoc4LpNN3_A-eyyVU7QEAdTWiTQgUQ2wNIUcuei0Qo9cz_Qhdz1Kr78bqoiNzS9kUgafcKg-Woeo8psmie0oeYsyuooUpB5FQRhh0rSN75-zz5BdakEVy1]--></g></svg>