<?xml version="1.0" encoding="us-ascii" standalone="no"?><svg xmlns="http://www.w3.org/2000/svg" xmlns:xlink="http://www.w3.org/1999/xlink" contentStyleType="text/css" height="230px" preserveAspectRatio="none" style="width:629px;height:230px;background:#FFFFFF;" version="1.1" viewBox="0 0 629 230" width="629px" zoomAndPan="magnify"><defs/><g><!--cluster ???--><g id="cluster_&#26426;&#22120;&#20154;"><rect fill="none" height="217" rx="2.5" ry="2.5" style="stroke:#181818;stroke-width:1.0;" width="515.6" x="108" y="7"/><text fill="#000000" font-family="sans-serif" font-size="14" font-weight="bold" lengthAdjust="spacing" textLength="42" x="344.8" y="22.5352">&#26426;&#22120;&#20154;</text></g><g id="elem_UC_Choose_Lang"><ellipse cx="175.2674" cy="116.0036" fill="#F1F1F1" rx="51.2674" ry="14.7036" style="stroke:#181818;stroke-width:0.5;"/><text fill="#000000" font-family="sans-serif" font-size="14" lengthAdjust="spacing" textLength="56" x="144.2893" y="120.0167">&#36873;&#25321;&#35821;&#35328;</text></g><g id="elem_UC_QA_Audio"><ellipse cx="365.7974" cy="185.0036" fill="#F1F1F1" rx="51.2674" ry="14.7036" style="stroke:#181818;stroke-width:0.5;"/><text fill="#000000" font-family="sans-serif" font-size="14" lengthAdjust="spacing" textLength="56" x="334.8193" y="189.0167">&#35821;&#38899;&#38382;&#35810;</text></g><g id="elem_UC_QA_Text"><ellipse cx="556.3374" cy="59.0036" fill="#F1F1F1" rx="51.2674" ry="14.7036" style="stroke:#181818;stroke-width:0.5;"/><text fill="#000000" font-family="sans-serif" font-size="14" lengthAdjust="spacing" textLength="56" x="525.3593" y="63.0167">&#25991;&#23383;&#38382;&#35810;</text></g><g id="elem_UC_HotQuestion"><ellipse cx="365.7974" cy="57.0036" fill="#F1F1F1" rx="51.2674" ry="14.7036" style="stroke:#181818;stroke-width:0.5;"/><text fill="#000000" font-family="sans-serif" font-size="14" lengthAdjust="spacing" textLength="56" x="334.8193" y="61.0167">&#28909;&#28857;&#38382;&#39064;</text></g><g id="elem_UC_Place_List"><ellipse cx="365.7974" cy="121.0036" fill="#F1F1F1" rx="51.2674" ry="14.7036" style="stroke:#181818;stroke-width:0.5;"/><text fill="#000000" font-family="sans-serif" font-size="14" lengthAdjust="spacing" textLength="56" x="334.8193" y="125.0167">&#36873;&#25321;&#22320;&#28857;</text></g><g id="elem_UC_Nav"><ellipse cx="556.3374" cy="148.0036" fill="#F1F1F1" rx="51.2674" ry="14.7036" style="stroke:#181818;stroke-width:0.5;"/><text fill="#000000" font-family="sans-serif" font-size="14" lengthAdjust="spacing" textLength="56" x="525.3593" y="152.0167">&#23548;&#33322;&#24102;&#36335;</text></g><!--entity u--><g id="elem_u"><ellipse cx="20" cy="86.26" fill="#F1F1F1" rx="8" ry="8" style="stroke:#181818;stroke-width:0.5;"/><path d="M20,94.26 L20,121.26 M7,102.26 L33,102.26 M20,121.26 L7,136.26 M20,121.26 L33,136.26 " fill="none" style="stroke:#181818;stroke-width:0.5;"/><text fill="#000000" font-family="sans-serif" font-size="14" lengthAdjust="spacing" textLength="28" x="6" y="151.2952">&#29992;&#25143;</text></g><!--link u to UC_Choose_Lang--><g id="link_u_UC_Choose_Lang"><path d="M34.33,116 C54.07,116 86.12,116 117.56,116 " fill="none" id="u-to-UC_Choose_Lang" style="stroke:#181818;stroke-width:1.0;"/><polygon fill="#181818" points="123.56,116,114.56,112,118.56,116,114.56,120,123.56,116" style="stroke:#181818;stroke-width:1.0;"/><text fill="#000000" font-family="sans-serif" font-size="13" lengthAdjust="spacing" textLength="26" x="65" y="112.5684">&#28857;&#20987;</text></g><!--link UC_Choose_Lang to UC_QA_Audio--><g id="link_UC_Choose_Lang_UC_QA_Audio"><path d="M208.25,127.7 C243.02,140.43 292.6353,158.5883 327.3453,171.2883 " fill="none" id="UC_Choose_Lang-to-UC_QA_Audio" style="stroke:#181818;stroke-width:1.0;"/><polygon fill="#181818" points="332.98,173.35,325.9024,166.5011,328.2844,171.6319,323.1535,174.014,332.98,173.35" style="stroke:#181818;stroke-width:1.0;"/><text fill="#000000" font-family="sans-serif" font-size="13" lengthAdjust="spacing" textLength="26" x="257.53" y="143.5684">&#35821;&#38899;</text></g><!--link UC_Choose_Lang to UC_HotQuestion--><g id="link_UC_Choose_Lang_UC_HotQuestion"><path d="M210.85,105.18 C244.76,94.57 290.4543,80.2733 324.3943,69.6433 " fill="none" id="UC_Choose_Lang-to-UC_HotQuestion" style="stroke:#181818;stroke-width:1.0;"/><polygon fill="#181818" points="330.12,67.85,320.3359,66.7228,325.3486,69.3444,322.7269,74.3571,330.12,67.85" style="stroke:#181818;stroke-width:1.0;"/><text fill="#000000" font-family="sans-serif" font-size="13" lengthAdjust="spacing" textLength="26" x="257.53" y="79.5684">&#28857;&#20987;</text></g><!--link UC_Choose_Lang to UC_Place_List--><g id="link_UC_Choose_Lang_UC_Place_List"><path d="M226.36,118.02 C236.35,118.38 246.78,118.73 256.53,119 C275.33,119.52 289.9609,119.8343 308.1209,120.1543 " fill="none" id="UC_Choose_Lang-to-UC_Place_List" style="stroke:#181818;stroke-width:1.0;"/><polygon fill="#181818" points="314.12,120.26,305.1919,116.1021,309.1208,120.1719,305.0509,124.1008,314.12,120.26" style="stroke:#181818;stroke-width:1.0;"/><text fill="#000000" font-family="sans-serif" font-size="13" lengthAdjust="spacing" textLength="26" x="257.53" y="115.5684">&#28857;&#20987;</text></g><!--link UC_Place_List to UC_Nav--><g id="link_UC_Place_List_UC_Nav"><path d="M412.44,127.54 C441.97,131.77 474.3407,136.3987 503.8507,140.6287 " fill="none" id="UC_Place_List-to-UC_Nav" style="stroke:#181818;stroke-width:1.0;"/><polygon fill="#181818" points="509.79,141.48,501.4486,136.2435,504.8406,140.7705,500.3135,144.1625,509.79,141.48" style="stroke:#181818;stroke-width:1.0;"/><text fill="#000000" font-family="sans-serif" font-size="13" lengthAdjust="spacing" textLength="26" x="448.07" y="129.5684">&#28857;&#20987;</text></g><!--link UC_HotQuestion to UC_QA_Text--><g id="link_UC_HotQuestion_UC_QA_Text"><path d="M417.33,57.54 C444.38,57.82 471.6003,58.1179 498.6703,58.3979 " fill="none" id="UC_HotQuestion-to-UC_QA_Text" style="stroke:#181818;stroke-width:1.0;"/><polygon fill="#181818" points="504.67,58.46,495.7119,54.3671,499.6703,58.4083,495.6291,62.3667,504.67,58.46" style="stroke:#181818;stroke-width:1.0;"/><text fill="#000000" font-family="sans-serif" font-size="13" lengthAdjust="spacing" textLength="26" x="448.07" y="54.5684">&#28857;&#20987;</text></g><!--link UC_QA_Audio to UC_Nav--><g id="link_UC_QA_Audio_UC_Nav"><path d="M409.11,176.7 C440.16,170.6 476.262,163.5141 507.282,157.4341 " fill="none" id="UC_QA_Audio-to-UC_Nav" style="stroke:#181818;stroke-width:1.0;"/><polygon fill="#181818" points="513.17,156.28,503.5687,154.0858,508.2634,157.2417,505.1074,161.9364,513.17,156.28" style="stroke:#181818;stroke-width:1.0;"/><text fill="#000000" font-family="sans-serif" font-size="13" lengthAdjust="spacing" textLength="26" x="448.07" y="161.5684">&#24847;&#22270;</text></g><!--SRC=[oqbDAr4eoLSeoapFA558oInAJIx9pC_ZIamkoIzIK7e-PSMpZkrA2ed52gLS8Bd4lFISL8LdStOzdRdYoQvT2jLS2a1GMfoQd5YSgg3qig7pMVVA5-lNlbZH0DOLwXpld96VNvmQxmFKYgeOgEpb_CqlfwzxiNuHJ76WOxnZQKfcFghAPzFQdwwTZg4o9BMY15NXy-Qrpvjs0XM-N3G3fj0ZloImDBKOx2qiZdqwPmDG2qnnG4vYCj2jcSLe1ZzTl-T5nwgdEvQzsBuUfjOliOohbgjKGLVN3isV2bOAG3EVjk_cGXE7AeNv4gWE4WWur24vdP2H28UZg4GIXYe4kXf51R8T2EU1WXP56Tp9ACOyQ-b_EdiV0000]--></g></svg>